<?xml version="1.0" encoding="utf-8"?>
<!-- Generator: Adobe Illustrator 15.1.0, SVG Export Plug-In . SVG Version: 6.00 Build 0)  -->
<!DOCTYPE svg PUBLIC "-//W3C//DTD SVG 1.1//EN" "http://www.w3.org/Graphics/SVG/1.1/DTD/svg11.dtd">
<svg version="1.1" id="Layer_1" xmlns="http://www.w3.org/2000/svg" xmlns:xlink="http://www.w3.org/1999/xlink" x="0px" y="0px"
	 width="300px" height="300px" viewBox="0 0 300 300" enable-background="new 0 0 300 300" xml:space="preserve">
<path fill="#CCCCCC" d="M-64.968-37.514c8.758-15.136,22.653-26.927,39.302-32.989l5.135,14.097
	c-13.32,4.85-24.438,14.284-31.443,26.394L-64.968-37.514z"/>
<path fill="#A6A6A6" d="M-25.663-70.498C-9.224-76.462,9-76.562,25.65-70.505l-5.128,14.1C7.201-61.252-7.38-61.171-20.532-56.398
	L-25.663-70.498z"/>
<path fill="#808080" d="M25.65-70.499c16.428,5.996,30.452,17.633,39.312,32.976l-12.99,7.505
	c-7.09-12.276-18.312-21.586-31.453-26.383L25.65-70.499z"/>
<path fill="#595959" d="M64.958-37.518c8.729,15.153,11.991,33.083,8.918,50.532l-14.775-2.603
	c2.459-13.96-0.152-28.306-7.137-40.429L64.958-37.518z"/>
<path fill="#333333" d="M73.871,13.015c-3.055,17.219-12.08,33.051-25.65,44.442l-9.646-11.49
	c10.857-9.114,18.078-21.782,20.521-35.559L73.871,13.015z"/>
<circle fill="none" stroke="#1E1E1C" stroke-miterlimit="10" cx="-0.003" cy="-0.009" r="60"/>
</svg>
