<?xml version="1.0" encoding="utf-8"?>
<!-- Generator: Adobe Illustrator 15.1.0, SVG Export Plug-In . SVG Version: 6.00 Build 0)  -->
<!DOCTYPE svg PUBLIC "-//W3C//DTD SVG 1.1//EN" "http://www.w3.org/Graphics/SVG/1.1/DTD/svg11.dtd">
<svg version="1.1" id="Layer_1" xmlns="http://www.w3.org/2000/svg" xmlns:xlink="http://www.w3.org/1999/xlink" x="0px" y="0px"
	 width="300px" height="300px" viewBox="0 0 300 300" enable-background="new 0 0 300 300" xml:space="preserve">
<g>
	<line fill="none" stroke="#010202" stroke-miterlimit="10" x1="0" y1="60.471" x2="0" y2="63.586"/>
	<line fill="none" stroke="#010202" stroke-miterlimit="10" x1="11.797" y1="59.311" x2="12.407" y2="62.366"/>
	<line fill="none" stroke="#010202" stroke-miterlimit="10" x1="23.144" y1="55.868" x2="24.334" y2="58.747"/>
	<line fill="none" stroke="#010202" stroke-miterlimit="10" x1="33.597" y1="50.281" x2="35.328" y2="52.871"/>
	<line fill="none" stroke="#010202" stroke-miterlimit="10" x1="42.758" y1="42.76" x2="44.963" y2="44.962"/>
	<line fill="none" stroke="#010202" stroke-miterlimit="10" x1="50.281" y1="33.598" x2="52.872" y2="35.326"/>
	<line fill="none" stroke="#010202" stroke-miterlimit="10" x1="55.87" y1="23.143" x2="58.748" y2="24.333"/>
	<line fill="none" stroke="#010202" stroke-miterlimit="10" x1="59.31" y1="11.799" x2="62.365" y2="12.406"/>
	<line fill="none" stroke="#010202" stroke-miterlimit="10" x1="60.473" y1="0" x2="63.586" y2="0"/>
	<line fill="none" stroke="#010202" stroke-miterlimit="10" x1="59.31" y1="-11.798" x2="62.366" y2="-12.405"/>
	<line fill="none" stroke="#010202" stroke-miterlimit="10" x1="55.87" y1="-23.141" x2="58.748" y2="-24.333"/>
	<line fill="none" stroke="#010202" stroke-miterlimit="10" x1="50.281" y1="-33.595" x2="52.873" y2="-35.326"/>
	<line fill="none" stroke="#010202" stroke-miterlimit="10" x1="42.758" y1="-42.76" x2="44.961" y2="-44.962"/>
	<line fill="none" stroke="#010202" stroke-miterlimit="10" x1="33.597" y1="-50.28" x2="35.328" y2="-52.87"/>
	<line fill="none" stroke="#010202" stroke-miterlimit="10" x1="23.142" y1="-55.868" x2="24.333" y2="-58.746"/>
	<line fill="none" stroke="#010202" stroke-miterlimit="10" x1="11.798" y1="-59.31" x2="12.407" y2="-62.364"/>
	<line fill="none" stroke="#010202" stroke-miterlimit="10" x1="0" y1="-60.471" x2="0" y2="-63.586"/>
	<line fill="none" stroke="#010202" stroke-miterlimit="10" x1="-11.797" y1="-59.31" x2="-12.405" y2="-62.364"/>
	<line fill="none" stroke="#010202" stroke-miterlimit="10" x1="-23.142" y1="-55.868" x2="-24.333" y2="-58.746"/>
	<line fill="none" stroke="#010202" stroke-miterlimit="10" x1="-33.597" y1="-50.28" x2="-35.327" y2="-52.871"/>
	<line fill="none" stroke="#010202" stroke-miterlimit="10" x1="-42.759" y1="-42.76" x2="-44.961" y2="-44.962"/>
	<line fill="none" stroke="#010202" stroke-miterlimit="10" x1="-50.281" y1="-33.595" x2="-52.871" y2="-35.326"/>
	<line fill="none" stroke="#010202" stroke-miterlimit="10" x1="-55.869" y1="-23.14" x2="-58.746" y2="-24.333"/>
	<line fill="none" stroke="#010202" stroke-miterlimit="10" x1="-59.31" y1="-11.798" x2="-62.365" y2="-12.405"/>
	<line fill="none" stroke="#010202" stroke-miterlimit="10" x1="-60.472" y1="0" x2="-63.586" y2="0"/>
	<line fill="none" stroke="#010202" stroke-miterlimit="10" x1="-59.311" y1="11.796" x2="-62.365" y2="12.406"/>
	<line fill="none" stroke="#010202" stroke-miterlimit="10" x1="-55.869" y1="23.143" x2="-58.746" y2="24.333"/>
	<line fill="none" stroke="#010202" stroke-miterlimit="10" x1="-50.281" y1="33.598" x2="-52.872" y2="35.326"/>
	<line fill="none" stroke="#010202" stroke-miterlimit="10" x1="-42.759" y1="42.76" x2="-44.961" y2="44.962"/>
	<line fill="none" stroke="#010202" stroke-miterlimit="10" x1="-33.597" y1="50.281" x2="-35.327" y2="52.87"/>
	<line fill="none" stroke="#010202" stroke-miterlimit="10" x1="-23.141" y1="55.868" x2="-24.333" y2="58.747"/>
	<line fill="none" stroke="#010202" stroke-miterlimit="10" x1="-11.797" y1="59.311" x2="-12.406" y2="62.364"/>
</g>
<circle fill="none" stroke="#1E1E1C" stroke-miterlimit="10" cx="-0.001" cy="0" r="60"/>
</svg>
